<svg data-v-423bf9ae="" xmlns="http://www.w3.org/2000/svg" viewBox="0 0 476.8420954248905 185" class="iconAbove"><!----><!----><!----><g data-v-423bf9ae="" id="a4448a11-782d-4df4-a61d-6bb6e198c5e1" fill="white" transform="matrix(5.4446458718365625,0,0,5.4446458718365625,-7.622502327536097,116.48862221291208)"><path d="M11.93 1.40L11.93 1.40Q12.11 1.40 12.22 1.52L12.22 1.52L12.22 1.52Q12.33 1.64 12.33 1.82L12.33 1.82L12.33 11.91L12.33 11.91Q12.33 12.10 12.22 12.21L12.22 12.21L12.22 12.21Q12.11 12.33 11.93 12.33L11.93 12.33L11.93 12.33Q11.75 12.33 11.62 12.21L11.62 12.21L11.62 12.21Q11.49 12.10 11.49 11.91L11.49 11.91L11.49 3.33L7.24 12.00L7.24 12.00Q7.14 12.19 6.87 12.19L6.87 12.19L6.87 12.19Q6.62 12.19 6.48 11.93L6.48 11.93L2.24 3.46L2.24 11.91L2.24 11.91Q2.24 12.10 2.12 12.21L2.12 12.21L2.12 12.21Q2.00 12.33 1.82 12.33L1.82 12.33L1.82 12.33Q1.64 12.33 1.52 12.21L1.52 12.21L1.52 12.21Q1.40 12.10 1.40 11.91L1.40 11.91L1.40 1.82L1.40 1.82Q1.40 1.64 1.52 1.52L1.52 1.52L1.52 1.52Q1.64 1.40 1.82 1.40L1.82 1.40L1.82 1.40Q2.10 1.40 2.20 1.61L2.20 1.61L6.90 10.91L11.55 1.61L11.55 1.61Q11.68 1.40 11.93 1.40L11.93 1.40ZM18.17 4.61L18.17 4.61Q19.19 4.61 20.00 5.09L20.00 5.09L20.00 5.09Q20.80 5.57 21.25 6.43L21.25 6.43L21.25 6.43Q21.70 7.28 21.70 8.37L21.70 8.37L21.70 8.37Q21.70 8.55 21.59 8.66L21.59 8.66L21.59 8.66Q21.48 8.76 21.29 8.76L21.29 8.76L15.43 8.76L15.43 8.76Q15.47 9.59 15.86 10.24L15.86 10.24L15.86 10.24Q16.25 10.89 16.91 11.26L16.91 11.26L16.91 11.26Q17.57 11.62 18.38 11.62L18.38 11.62L18.38 11.62Q18.93 11.62 19.48 11.43L19.48 11.43L19.48 11.43Q20.03 11.24 20.36 10.93L20.36 10.93L20.36 10.93Q20.50 10.82 20.65 10.82L20.65 10.82L20.65 10.82Q20.80 10.82 20.90 10.91L20.90 10.91L20.90 10.91Q21.06 11.03 21.06 11.20L21.06 11.20L21.06 11.20Q21.06 11.34 20.93 11.47L20.93 11.47L20.93 11.47Q20.48 11.87 19.76 12.14L19.76 12.14L19.76 12.14Q19.04 12.40 18.38 12.40L18.38 12.40L18.38 12.40Q17.28 12.40 16.41 11.91L16.41 11.91L16.41 11.91Q15.55 11.41 15.06 10.52L15.06 10.52L15.06 10.52Q14.57 9.63 14.57 8.51L14.57 8.51L14.57 8.51Q14.57 7.38 15.03 6.49L15.03 6.49L15.03 6.49Q15.48 5.60 16.30 5.10L16.30 5.10L16.30 5.10Q17.12 4.61 18.17 4.61L18.17 4.61ZM18.17 5.39L18.17 5.39Q17.08 5.39 16.33 6.12L16.33 6.12L16.33 6.12Q15.58 6.85 15.44 8.04L15.44 8.04L20.89 8.04L20.89 8.04Q20.79 6.85 20.05 6.12L20.05 6.12L20.05 6.12Q19.31 5.39 18.17 5.39L18.17 5.39ZM31.60 4.58L31.60 4.58Q32.44 4.58 33.10 5.00L33.10 5.00L33.10 5.00Q33.75 5.42 34.12 6.17L34.12 6.17L34.12 6.17Q34.48 6.92 34.48 7.87L34.48 7.87L34.48 11.91L34.48 11.91Q34.48 12.10 34.37 12.21L34.37 12.21L34.37 12.21Q34.26 12.33 34.06 12.33L34.06 12.33L34.06 12.33Q33.88 12.33 33.76 12.21L33.76 12.21L33.76 12.21Q33.64 12.10 33.64 11.91L33.64 11.91L33.64 7.87L33.64 7.87Q33.64 6.79 33.07 6.10L33.07 6.10L33.07 6.10Q32.49 5.42 31.60 5.42L31.60 5.42L31.60 5.42Q30.62 5.42 30.02 6.06L30.02 6.06L30.02 6.06Q29.41 6.71 29.44 7.77L29.44 7.77L29.44 7.87L29.44 11.91L29.44 11.91Q29.44 12.10 29.33 12.21L29.33 12.21L29.33 12.21Q29.22 12.33 29.02 12.33L29.02 12.33L29.02 12.33Q28.84 12.33 28.72 12.21L28.72 12.21L28.72 12.21Q28.60 12.10 28.60 11.91L28.60 11.91L28.60 7.87L28.60 7.87Q28.60 6.79 28.03 6.10L28.03 6.10L28.03 6.10Q27.45 5.42 26.56 5.42L26.56 5.42L26.56 5.42Q25.59 5.42 24.98 6.03L24.98 6.03L24.98 6.03Q24.36 6.65 24.36 7.63L24.36 7.63L24.36 11.91L24.36 11.91Q24.36 12.10 24.25 12.21L24.25 12.21L24.25 12.21Q24.14 12.33 23.94 12.33L23.94 12.33L23.94 12.33Q23.76 12.33 23.64 12.21L23.64 12.21L23.64 12.21Q23.52 12.10 23.52 11.91L23.52 11.91L23.52 5.10L23.52 5.10Q23.52 4.90 23.64 4.79L23.64 4.79L23.64 4.79Q23.76 4.68 23.94 4.68L23.94 4.68L23.94 4.68Q24.14 4.68 24.25 4.79L24.25 4.79L24.25 4.79Q24.36 4.90 24.36 5.10L24.36 5.10L24.36 5.64L24.36 5.64Q24.75 5.14 25.33 4.86L25.33 4.86L25.33 4.86Q25.90 4.58 26.56 4.58L26.56 4.58L26.56 4.58Q27.37 4.58 28.01 4.98L28.01 4.98L28.01 4.98Q28.66 5.38 29.04 6.08L29.04 6.08L29.04 6.08Q29.41 5.38 30.09 4.98L30.09 4.98L30.09 4.98Q30.76 4.58 31.60 4.58L31.60 4.58ZM40.36 4.59L40.36 4.59Q41.45 4.59 42.35 5.10L42.35 5.10L42.35 5.10Q43.25 5.61 43.76 6.51L43.76 6.51L43.76 6.51Q44.27 7.41 44.27 8.51L44.27 8.51L44.27 8.51Q44.27 9.60 43.76 10.50L43.76 10.50L43.76 10.50Q43.25 11.40 42.35 11.91L42.35 11.91L42.35 11.91Q41.45 12.42 40.36 12.42L40.36 12.42L40.36 12.42Q39.26 12.42 38.36 11.91L38.36 11.91L38.36 11.91Q37.46 11.40 36.95 10.50L36.95 10.50L36.95 10.50Q36.44 9.60 36.44 8.51L36.44 8.51L36.44 8.51Q36.44 7.41 36.95 6.51L36.95 6.51L36.95 6.51Q37.46 5.61 38.36 5.10L38.36 5.10L38.36 5.10Q39.26 4.59 40.36 4.59L40.36 4.59ZM40.36 5.38L40.36 5.38Q39.49 5.38 38.79 5.79L38.79 5.79L38.79 5.79Q38.09 6.20 37.69 6.92L37.69 6.92L37.69 6.92Q37.28 7.63 37.28 8.51L37.28 8.51L37.28 8.51Q37.28 9.39 37.69 10.11L37.69 10.11L37.69 10.11Q38.09 10.82 38.79 11.23L38.79 11.23L38.79 11.23Q39.49 11.63 40.36 11.63L40.36 11.63L40.36 11.63Q41.23 11.63 41.93 11.23L41.93 11.23L41.93 11.23Q42.63 10.82 43.03 10.11L43.03 10.11L43.03 10.11Q43.43 9.39 43.43 8.51L43.43 8.51L43.43 8.51Q43.43 7.63 43.03 6.92L43.03 6.92L43.03 6.92Q42.63 6.20 41.93 5.79L41.93 5.79L41.93 5.79Q41.23 5.38 40.36 5.38L40.36 5.38ZM50.36 1.40L50.36 1.40Q51.13 1.40 51.79 1.74L51.79 1.74L51.79 1.74Q52.44 2.09 52.83 2.69L52.83 2.69L52.83 2.69Q53.21 3.29 53.21 4.05L53.21 4.05L53.21 4.05Q53.21 4.83 52.79 5.45L52.79 5.45L52.79 5.45Q52.37 6.08 51.67 6.38L51.67 6.38L51.67 6.38Q52.65 6.65 53.22 7.37L53.22 7.37L53.22 7.37Q53.79 8.09 53.79 9.16L53.79 9.16L53.79 9.16Q53.79 10.08 53.38 10.80L53.38 10.80L53.38 10.80Q52.96 11.52 52.23 11.93L52.23 11.93L52.23 11.93Q51.49 12.33 50.57 12.33L50.57 12.33L47.05 12.33L47.05 12.33Q46.80 12.33 46.65 12.23L46.65 12.23L46.65 12.23Q46.51 12.12 46.51 11.91L46.51 11.91L46.51 1.82L46.51 1.82Q46.51 1.62 46.63 1.51L46.63 1.51L46.63 1.51Q46.75 1.40 46.93 1.40L46.93 1.40L50.36 1.40ZM50.36 6.02L50.36 6.02Q51.25 6.02 51.81 5.47L51.81 5.47L51.81 5.47Q52.37 4.93 52.37 4.05L52.37 4.05L52.37 4.05Q52.37 3.19 51.82 2.72L51.82 2.72L51.82 2.72Q51.27 2.24 50.36 2.24L50.36 2.24L47.35 2.24L47.35 6.02L50.36 6.02ZM50.57 11.49L50.57 11.49Q51.25 11.49 51.79 11.19L51.79 11.19L51.79 11.19Q52.33 10.89 52.64 10.36L52.64 10.36L52.64 10.36Q52.95 9.83 52.95 9.16L52.95 9.16L52.95 9.16Q52.95 8.50 52.64 7.97L52.64 7.97L52.64 7.97Q52.33 7.45 51.79 7.15L51.79 7.15L51.79 7.15Q51.25 6.86 50.57 6.86L50.57 6.86L47.35 6.86L47.35 11.49L50.57 11.49ZM59.07 4.59L59.07 4.59Q60.13 4.59 60.13 5.05L60.13 5.05L60.13 5.05Q60.13 5.12 60.12 5.17L60.12 5.17L60.12 5.17Q60.07 5.32 59.98 5.38L59.98 5.38L59.98 5.38Q59.89 5.45 59.74 5.45L59.74 5.45L59.74 5.45Q59.61 5.45 59.41 5.42L59.41 5.42L59.41 5.42Q59.21 5.39 59.07 5.39L59.07 5.39L59.07 5.39Q58.37 5.39 57.82 5.68L57.82 5.68L57.82 5.68Q57.27 5.98 56.97 6.50L56.97 6.50L56.97 6.50Q56.66 7.01 56.66 7.66L56.66 7.66L56.66 11.91L56.66 11.91Q56.66 12.10 56.55 12.21L56.55 12.21L56.55 12.21Q56.43 12.33 56.24 12.33L56.24 12.33L56.24 12.33Q56.06 12.33 55.94 12.21L55.94 12.21L55.94 12.21Q55.82 12.10 55.82 11.91L55.82 11.91L55.82 5.10L55.82 5.10Q55.82 4.90 55.94 4.79L55.94 4.79L55.94 4.79Q56.06 4.68 56.24 4.68L56.24 4.68L56.24 4.68Q56.43 4.68 56.55 4.79L56.55 4.79L56.55 4.79Q56.66 4.90 56.66 5.10L56.66 5.10L56.66 5.96L56.66 5.96Q57.06 5.32 57.69 4.96L57.69 4.96L57.69 4.96Q58.32 4.59 59.07 4.59L59.07 4.59ZM65.45 4.59L65.45 4.59Q66.54 4.59 67.44 5.10L67.44 5.10L67.44 5.10Q68.33 5.61 68.84 6.51L68.84 6.51L68.84 6.51Q69.36 7.41 69.36 8.51L69.36 8.51L69.36 8.51Q69.36 9.60 68.84 10.50L68.84 10.50L68.84 10.50Q68.33 11.40 67.44 11.91L67.44 11.91L67.44 11.91Q66.54 12.42 65.45 12.42L65.45 12.42L65.45 12.42Q64.34 12.42 63.45 11.91L63.45 11.91L63.45 11.91Q62.55 11.40 62.04 10.50L62.04 10.50L62.04 10.50Q61.53 9.60 61.53 8.51L61.53 8.51L61.53 8.51Q61.53 7.41 62.04 6.51L62.04 6.51L62.04 6.51Q62.55 5.61 63.45 5.10L63.45 5.10L63.45 5.10Q64.34 4.59 65.45 4.59L65.45 4.59ZM65.45 5.38L65.45 5.38Q64.58 5.38 63.88 5.79L63.88 5.79L63.88 5.79Q63.18 6.20 62.78 6.92L62.78 6.92L62.78 6.92Q62.37 7.63 62.37 8.51L62.37 8.51L62.37 8.51Q62.37 9.39 62.78 10.11L62.78 10.11L62.78 10.11Q63.18 10.82 63.88 11.23L63.88 11.23L63.88 11.23Q64.58 11.63 65.45 11.63L65.45 11.63L65.45 11.63Q66.32 11.63 67.02 11.23L67.02 11.23L67.02 11.23Q67.72 10.82 68.12 10.11L68.12 10.11L68.12 10.11Q68.52 9.39 68.52 8.51L68.52 8.51L68.52 8.51Q68.52 7.63 68.12 6.92L68.12 6.92L68.12 6.92Q67.72 6.20 67.02 5.79L67.02 5.79L67.02 5.79Q66.32 5.38 65.45 5.38L65.45 5.38ZM80.02 4.68L80.02 4.68Q80.21 4.68 80.30 4.79L80.30 4.79L80.30 4.79Q80.40 4.90 80.40 5.07L80.40 5.07L80.40 5.07Q80.40 5.17 80.36 5.28L80.36 5.28L78.11 12.07L78.11 12.07Q78.06 12.19 77.96 12.26L77.96 12.26L77.96 12.26Q77.85 12.33 77.70 12.33L77.70 12.33L77.70 12.33Q77.56 12.33 77.45 12.26L77.45 12.26L77.45 12.26Q77.34 12.19 77.31 12.07L77.31 12.07L75.40 6.15L73.56 12.07L73.56 12.07Q73.46 12.33 73.16 12.33L73.16 12.33L73.16 12.33Q73.02 12.33 72.92 12.26L72.92 12.26L72.92 12.26Q72.81 12.19 72.77 12.07L72.77 12.07L70.50 5.28L70.50 5.28Q70.48 5.11 70.48 5.05L70.48 5.05L70.48 5.05Q70.48 4.68 70.83 4.68L70.83 4.68L70.83 4.68Q70.95 4.68 71.06 4.74L71.06 4.74L71.06 4.74Q71.16 4.80 71.22 4.93L71.22 4.93L73.19 10.89L75.01 5.01L75.01 5.01Q75.05 4.86 75.17 4.77L75.17 4.77L75.17 4.77Q75.28 4.68 75.43 4.68L75.43 4.68L75.43 4.68Q75.74 4.68 75.85 5.01L75.85 5.01L77.69 10.78L79.63 4.93L79.63 4.93Q79.74 4.68 80.02 4.68L80.02 4.68ZM85.44 4.58L85.44 4.58Q86.46 4.58 87.27 5.00L87.27 5.00L87.27 5.00Q88.07 5.42 88.53 6.22L88.53 6.22L88.53 6.22Q88.98 7.03 88.98 8.15L88.98 8.15L88.98 11.91L88.98 11.91Q88.98 12.10 88.87 12.21L88.87 12.21L88.87 12.21Q88.75 12.33 88.56 12.33L88.56 12.33L88.56 12.33Q88.38 12.33 88.26 12.21L88.26 12.21L88.26 12.21Q88.14 12.10 88.14 11.91L88.14 11.91L88.14 8.15L88.14 8.15Q88.14 6.82 87.39 6.12L87.39 6.12L87.39 6.12Q86.65 5.42 85.44 5.42L85.44 5.42L85.44 5.42Q84.70 5.42 84.09 5.70L84.09 5.70L84.09 5.70Q83.48 5.99 83.13 6.50L83.13 6.50L83.13 6.50Q82.78 7.01 82.78 7.63L82.78 7.63L82.78 11.91L82.78 11.91Q82.78 12.10 82.67 12.21L82.67 12.21L82.67 12.21Q82.56 12.33 82.36 12.33L82.36 12.33L82.36 12.33Q82.18 12.33 82.06 12.21L82.06 12.21L82.06 12.21Q81.94 12.10 81.94 11.91L81.94 11.91L81.94 5.10L81.94 5.10Q81.94 4.90 82.06 4.79L82.06 4.79L82.06 4.79Q82.18 4.68 82.36 4.68L82.36 4.68L82.36 4.68Q82.56 4.68 82.67 4.79L82.67 4.79L82.67 4.79Q82.78 4.90 82.78 5.10L82.78 5.10L82.78 5.82L82.78 5.82Q83.26 5.24 83.94 4.91L83.94 4.91L83.94 4.91Q84.63 4.58 85.44 4.58L85.44 4.58Z"></path></g><!----><g data-v-423bf9ae="" id="e4961c81-cd5d-4073-985b-a0e5d75a1c1c" transform="matrix(1.1111111958821616,0,0,1.1111111958821616,182.98088354530324,0.4444359673390821)" stroke="none" fill="white"><path d="M85.102 75.82s8.129-2.684 5.751-14.886v-.007a.642.642 0 0 0-.005-.037l-.007-.002a1.285 1.285 0 0 0-2.535.304c0 .026.007.051.008.078l-.006.002s-1.402 14.548-13.434 7.625c.001 0 3.51 7.826 10.228 6.923zM14.9 75.82c6.717.903 10.225-6.923 10.225-6.923-12.03 6.923-13.433-7.625-13.433-7.625-.001-.002-.003-.002-.005-.002.002-.027.009-.052.009-.078a1.285 1.285 0 1 0-2.536-.304l-.005.002-.008.037v.007C6.769 73.136 14.9 75.82 14.9 75.82zM15.657 89.886c-.251.015-.502.031-.756.031-4.332 0-8.334-2.136-11.596-5.747a.972.972 0 0 0-1.768.555c0 .156.041.3.105.432l-.001-.002c2.412 6.903 9.585 11.912 18.067 11.912.252 0 .502-.016.753-.023-1.752-1.648-3.45-3.951-4.804-7.158zM98.337 85.386a.96.96 0 0 0 .127-.469.97.97 0 0 0-1.778-.541v-.002c-3.23 3.487-7.161 5.543-11.411 5.543-.383 0-.758-.021-1.134-.056-1.354 3.212-3.05 5.521-4.8 7.17.346.016.694.035 1.042.035 8.379 0 15.481-4.891 17.974-11.667l-.019-.014h-.001z"></path><path d="M96.962 69.544c0-.854-.691-1.544-1.542-1.544-.603 0-1.12.349-1.373.853l-.004-.002c-2.438 5.061-6.066 8.273-10.122 8.273-7.186 0-13.033-10.08-13.281-22.676a7.628 7.628 0 0 0 1.59-11.968c.29-.942.605-1.854.964-2.714a26.542 26.542 0 0 0 3.454-13.123C76.648 11.929 64.728 0 50.026 0 35.323 0 23.404 11.929 23.404 26.644c0 4.697 1.219 9.109 3.352 12.941.383.909.727 1.872 1.034 2.876a7.633 7.633 0 0 0 1.586 11.997c-.25 12.592-6.098 22.666-13.281 22.666-4.011 0-7.604-3.143-10.041-8.107-.058-.117-.117-.234-.174-.353a1.52 1.52 0 0 0-2.775.857c0 .171.035.33.086.482.022.059.05.113.068.173 2.676 8.927 7.176 11.76 10.303 12.368-.045-.251-.092-.504-.134-.765l-.054-.345.024-.028c-.034-1.098.542-2.036 1.46-2.332.192-.063.392-.096.594-.096.978 0 1.907.731 2.297 1.797l.01.005.072.257c.006.021.388 1.345 1.179 2.977.231.015.461.033.695.033 3.585 0 6.936-1.447 9.794-3.958-2.121 3.534-4.785 6.28-7.783 7.964 1.525 1.544 3.583 2.437 5.778 2.437 3.027 0 5.782-1.7 7.18-4.33h.001c1.798-3.637 2.761-9.605 2.761-9.605-.098 1.752.166 5.048-1.146 8.92l-.023.063a9.363 9.363 0 0 1-8.773 6.156 9.314 9.314 0 0 1-7.375-3.617 9.308 9.308 0 0 1-.411-.567 14.85 14.85 0 0 1-.63-.905c-.015-.022-.028-.046-.042-.067a18.725 18.725 0 0 1-.516-.857c-.016-.028-.029-.053-.045-.079a23.408 23.408 0 0 1-.446-.843c-.008-.019-.017-.035-.026-.054a22.442 22.442 0 0 1-1.195-2.903h-.03l-.134-.534c-.233-.727-.885-1.221-1.417-1.046-.431.138-.69.693-.615 1.318l.006.078h.002c.084.524.177 1.029.274 1.522.107.546.226 1.068.349 1.579.035.144.069.288.106.43.051.199.103.396.156.593l.128.448c.059.201.118.403.179.6.081.262.165.521.25.771.052.153.105.299.159.446.058.164.116.324.175.479.055.143.109.285.164.423.067.168.136.334.206.496.049.119.098.238.148.353 1.49 3.379 3.374 5.646 5.246 7.164a17.379 17.379 0 0 0 .943.703 14.482 14.482 0 0 0 1.768 1.041 13.5 13.5 0 0 0 1.554.654c.025.01.052.021.079.028a15.244 15.244 0 0 0 .765.236c.207.058.406.108.593.151.028.006.055.011.082.018.192.042.377.078.546.106l.148.025.045.008a8.672 8.672 0 0 0 1.157.107l.089-.017.261.002c4.042 0 13.92-1.798 19.497-18.141l.206-.589.205.589c5.575 16.343 15.455 18.141 19.495 18.141l.262-.002.091.018c.136-.002.55-.015 1.157-.107l.046-.008.147-.025a8.86 8.86 0 0 0 .551-.108l.078-.016c.192-.046.395-.096.604-.155l.093-.025c.218-.062.443-.134.677-.213.021-.009.042-.015.064-.022.757-.266 1.59-.634 2.457-1.146.017-.009.033-.02.05-.027.281-.169.568-.352.857-.551.017-.013.031-.025.05-.036a15.1 15.1 0 0 0 .887-.671c1.872-1.525 3.756-3.803 5.239-7.197a28.66 28.66 0 0 0 .688-1.75c.043-.123.088-.245.132-.372.087-.257.172-.521.256-.792.064-.201.123-.407.183-.615a32.509 32.509 0 0 0 .282-1.031c.021-.084.04-.168.062-.25.129-.525.25-1.065.363-1.628.107-.528.209-1.07.298-1.636l.006-.078c.077-.625-.183-1.181-.615-1.318-.531-.175-1.184.319-1.415 1.046l-.134.534h-.031a22.15 22.15 0 0 1-.819 2.112l-.002.003c-.12.265-.25.54-.391.825-.009.019-.019.037-.027.056-.135.27-.284.547-.439.828-.017.026-.032.053-.046.078-.159.282-.328.566-.512.848-.015.021-.027.044-.04.065-.196.302-.401.602-.624.894a9.003 9.003 0 0 1-.378.53 9.324 9.324 0 0 1-7.406 3.655 9.361 9.361 0 0 1-8.773-6.156l-.024-.063c-1.142-2.622-1.047-7.168-1.146-8.92 0 0 .965 5.969 2.761 9.605h.002a8.153 8.153 0 0 0 7.181 4.33c2.26 0 4.377-.943 5.914-2.575-2.855-1.671-5.396-4.313-7.443-7.681 2.82 2.42 6.106 3.813 9.62 3.813.128 0 .255-.013.384-.017.798-1.64 1.183-2.972 1.188-2.993l.072-.257.008-.005c.391-1.065 1.319-1.797 2.296-1.797.204 0 .403.032.597.096.919.296 1.492 1.234 1.46 2.332l.023.028-.055.345c-.05.314-.105.615-.161.92 5.092-1.181 9.156-6.809 10.634-12.524l-.006-.003c.086-.195.136-.406.136-.631zM34.926 51.859a2.874 2.874 0 1 1 .001-5.747 2.874 2.874 0 0 1-.001 5.747zm30.151 0a2.873 2.873 0 0 1-2.872-2.875 2.873 2.873 0 1 1 5.743 0 2.873 2.873 0 0 1-2.871 2.875z"></path></g><!----></svg>